PathFileType	4	(X/Y/Z)	s02c0102.trc
DataRate	CameraRate	NumFrames	NumMarkers	Units	OrigDataRate	OrigDataStartFrame	OrigNumFrames
200	200	4	51	mm	200	250	2000
Frame#	Time	racr			lacr			c7			jug			rlel			rdr			llel			ldr			s2			lic			ric			lasi			rasi			rpsi			lpsi			rgt			lgt			rth1			rth2			rth3			rth4			rlfc			rmfc			rsh1			rsh2			rsh3			rsh4			rlmal			rmmal			rcal			rtoe			rmt5			rmt1			lth1			lth2			lth4			lth3			llfc			lmfc			lsh1			lsh2			lsh3			lsh4			llmal			lmmal			lcal			ltoe			lmt5			SBIKE			LBIKE			RBIKE			
		X1	Y1	Z1	X2	Y2	Z2	X3	Y3	Z3	X4	Y4	Z4	X5	Y5	Z5	X6	Y6	Z6	X7	Y7	Z7	X8	Y8	Z8	X9	Y9	Z9	X10	Y10	Z10	X11	Y11	Z11	X12	Y12	Z12	X13	Y13	Z13	X14	Y14	Z14	X15	Y15	Z15	X16	Y16	Z16	X17	Y17	Z17	X18	Y18	Z18	X19	Y19	Z19	X20	Y20	Z20	X21	Y21	Z21	X22	Y22	Z22	X23	Y23	Z23	X24	Y24	Z24	X25	Y25	Z25	X26	Y26	Z26	X27	Y27	Z27	X28	Y28	Z28	X29	Y29	Z29	X30	Y30	Z30	X31	Y31	Z31	X32	Y32	Z32	X33	Y33	Z33	X34	Y34	Z34	X35	Y35	Z35	X36	Y36	Z36	X37	Y37	Z37	X38	Y38	Z38	X39	Y39	Z39	X40	Y40	Z40	X41	Y41	Z41	X42	Y42	Z42	X43	Y43	Z43	X44	Y44	Z44	X45	Y45	Z45	X46	Y46	Z46	X47	Y47	Z47	X48	Y48	Z48	X49	Y49	Z49	X50	Y50	Z50	X51	Y51	Z51	
250	1.2500	508.211699	1250.389765	-121.596896	518.634664	1252.863226	-479.241111	538.799119	1282.052456	-307.896617	472.430217	1162.061533	-303.022858	549.475863	985.764908	-72.785786	724.252657	855.521545	-128.135957	531.331068	982.147699	-555.772407	708.920056	839.358347	-498.823670	10.202643	1110.720100	-321.378149	156.110004	1098.749625	-460.313916	139.635645	1107.215559	-178.421641	196.174635	1058.401668	-437.852906	195.160898	1081.169155	-207.431192	39.445334	1155.851240	-280.115070	52.046012	1166.214251	-363.042552	114.267093	1039.688672	-133.329951	89.213047	1010.590093	-497.879551	198.081350	1018.855637	-137.671302	285.213288	1011.242688	-146.874528	357.346006	969.760917	-126.073265	294.244250	1035.042508	-175.291669	478.946569	884.382754	-160.849108	469.643877	863.717256	-273.227944	462.540411	773.819762	-142.247461	441.634522	688.214241	-159.482332	389.180328	620.969090	-148.841042	453.346169	684.102317	-196.800965	328.030663	518.168481	-149.765214	331.840134	537.345627	-230.419840	249.039634	471.685818	-187.557502	533.978090	452.198384	-198.407107	428.196305	441.464253	-133.866845	449.741083	453.238045	-244.662846	189.362134	904.616614	-514.014511	254.305376	846.489978	-510.329048	281.804030	864.766272	-494.010142	280.477148	761.373407	-510.415458	331.195434	674.979006	-485.708743	330.801609	646.833395	-383.395289	286.010521	581.334429	-506.299884	257.486069	501.503566	-488.732333	190.892438	440.919624	-493.472207	273.420661	494.790995	-451.613716	118.579582	364.599428	-477.537698	134.687792	355.122661	-401.035780	40.249072	354.414717	-438.221317	268.351836	180.658439	-440.943319	168.604707	221.284896	-501.873221	-165.141826	857.457913	-316.194738	33.139662	82.059347	-515.257135	33.121002	82.065785	-115.101325	
251	1.2550	508.667863	1250.759875	-121.525076	520.078686	1253.084836	-477.810650	538.889830	1281.605239	-307.498451	472.514530	1161.611061	-302.663463	547.826019	985.269402	-72.192664	724.274033	856.850577	-127.257834	531.741217	982.409877	-556.161073	708.957405	839.389283	-499.020912	10.119877	1110.933880	-321.591912	156.031358	1098.891212	-460.489964	139.325484	1107.648515	-178.424828	196.099164	1058.555890	-437.978028	194.768129	1081.499323	-207.522245	39.322477	1156.260444	-280.388339	51.905614	1166.543154	-363.226035	114.057886	1039.936620	-133.588758	89.262328	1010.683764	-497.881759	198.112788	1018.595834	-137.639390	285.071069	1010.365145	-147.322721	357.290914	969.109380	-125.613951	294.400535	1034.664979	-175.026027	478.383090	883.173910	-161.101167	468.802284	862.709290	-273.355218	462.109544	772.546240	-142.446466	441.028640	686.795099	-160.014485	388.718894	619.707022	-149.107946	452.052526	682.953371	-197.435581	327.263837	517.123284	-149.928755	330.902979	536.057883	-230.524429	248.324077	470.228955	-187.410269	533.626279	452.713817	-198.310089	427.818807	441.306554	-133.723191	449.422867	453.237885	-244.482138	189.520375	904.868985	-513.957499	254.547008	846.892226	-510.340436	282.041767	865.122209	-494.012533	280.821837	761.742942	-510.448494	331.680235	675.389254	-485.610537	331.144048	647.285851	-383.198915	286.653465	581.760730	-506.252612	258.118229	501.878009	-488.656883	191.503647	441.260697	-493.532969	273.856453	495.201461	-451.460592	119.072716	364.904291	-477.691135	135.152278	355.431514	-401.161115	40.804959	354.989614	-438.271309	268.241649	180.450855	-440.965616	168.640581	221.362955	-501.881106	-165.192706	856.804089	-318.398386	33.134891	82.062850	-515.253401	33.133648	82.060102	-115.103955	
252	1.2600	509.167158	1251.112356	-121.401106	521.602473	1253.161733	-476.518110	538.997714	1281.186789	-307.148802	472.655907	1161.130804	-302.129602	546.394945	984.896342	-71.823640	724.364213	858.338916	-126.349924	532.185630	982.641988	-556.546783	709.052682	839.404601	-499.202822	10.019128	1111.107854	-321.792616	155.971249	1099.045706	-460.699116	138.983259	1108.108503	-178.465191	196.037428	1058.755431	-438.070501	194.425916	1081.904060	-207.557047	39.173364	1156.639260	-280.631621	51.794229	1166.987990	-363.457155	113.829517	1040.231453	-133.802896	89.337676	1010.808419	-497.893723	198.130142	1018.173258	-137.955352	284.924942	1009.671335	-147.507148	356.844606	967.790323	-126.365515	294.467574	1034.227320	-174.899628	477.671693	881.906813	-161.349069	467.992304	861.459331	-273.619162	461.587474	771.219421	-142.712485	440.400047	685.555596	-160.428761	388.044075	618.433505	-149.349966	451.360595	681.696705	-197.735007	326.412271	515.909712	-150.038973	329.889586	534.914625	-230.663438	247.916855	468.474218	-187.240307	533.310135	453.248131	-198.217833	427.479930	441.033006	-133.641949	449.103390	453.124867	-244.537976	189.741294	905.179191	-513.925365	254.820135	847.279034	-510.351623	282.326242	865.541908	-493.988169	281.213703	762.180460	-510.497147	332.167847	675.831670	-485.519430	331.536740	647.689503	-383.050408	287.347119	582.180764	-506.224634	258.666104	502.300796	-488.541152	192.137962	441.660121	-493.535389	274.579422	495.453005	-451.680059	119.669587	365.281888	-477.850662	135.655607	355.776874	-401.278263	41.446808	355.715010	-438.388447	268.048922	180.140307	-440.905783	168.674654	221.517241	-501.880551	-165.135386	856.907899	-317.992697	33.150039	82.066484	-515.258503	33.118685	82.053695	-115.095505	
253	1.2650	509.660463	1251.455279	-121.237978	523.138278	1253.195964	-475.087792	539.079093	1280.775587	-306.764656	472.823775	1160.588390	-301.511299	545.279435	984.738242	-71.702441	724.277076	859.178116	-125.837895	532.729286	982.842364	-556.924941	709.161107	839.353847	-499.402966	9.927485	1111.291085	-322.039283	155.942985	1099.161978	-460.909831	138.647079	1108.563215	-178.479710	195.983863	1058.994466	-438.111583	194.089192	1082.259083	-207.551970	39.029588	1157.007082	-280.890328	51.734936	1167.384427	-363.753404	113.555474	1040.526364	-133.993052	89.410464	1010.931414	-497.907117	198.038302	1017.958127	-137.982340	284.673162	1008.991043	-147.557232	356.534459	966.901776	-126.488614	294.451108	1033.835059	-174.774666	476.955929	880.539350	-161.469068	467.065718	860.384169	-273.731485	460.928779	769.807008	-142.930233	439.718866	684.148527	-160.816894	387.508398	617.061861	-149.662464	450.515990	680.496406	-198.197929	325.792440	514.629173	-150.128721	329.121790	533.417501	-230.866055	247.839811	466.119865	-188.063067	533.000777	453.726856	-198.131057	427.276418	440.655113	-133.612163	448.837942	453.012045	-244.541409	189.984668	905.510404	-513.870279	255.136251	847.701809	-510.367960	282.614384	865.995881	-494.003495	281.696868	762.668351	-510.601833	332.750328	676.411609	-485.383365	332.009146	647.951411	-382.977006	288.003648	582.672770	-506.144608	259.354205	502.814605	-488.572025	192.780120	442.179745	-493.542578	275.191626	495.986009	-451.645602	120.223082	365.681743	-477.972595	136.188867	356.213087	-401.395143	41.985774	356.444026	-438.445147	267.913685	179.925052	-440.945690	168.686505	221.685040	-501.882518	-165.142770	857.603766	-315.913861	33.142056	82.080119	-515.259283	33.119363	82.066507	-115.079809	
